<svg width="422" height="145" viewBox="0 0 422 145" fill="none" xmlns="http://www.w3.org/2000/svg">
<path d="M126.831 0.264994L1.72801 57.4519C0.255329 58.1251 -0.404604 59.8742 0.257087 61.3512L36.9604 143.277C37.6221 144.754 39.3586 145.408 40.8313 144.735L165.934 87.5481C167.407 86.8749 168.066 85.1258 167.405 83.6488L130.701 1.7227C130.04 0.24573 128.304 -0.408197 126.831 0.264994ZM126.561 6.84278L160.864 83.4119L41.1019 138.157L6.79858 61.5881L126.561 6.84278Z" fill="#C099BC"/>
<path d="M66.0979 119.383L149.11 81.4368C150.583 80.7636 151.242 79.0145 150.581 77.5375L124.141 18.5207C123.479 17.0438 121.743 16.3898 120.271 17.063L37.2581 55.0096C35.7854 55.6828 35.1257 57.4317 35.7874 58.9087L62.227 117.925C62.8887 119.403 64.6252 120.057 66.0979 119.383ZM66.3686 112.806L42.3287 59.1458L120 23.6409L144.04 77.301L66.3686 112.806Z" fill="#C099BC"/>
<path d="M40.0167 104.4C45.4345 101.924 47.8614 95.4883 45.4271 90.0548C42.9929 84.6212 36.605 82.216 31.1874 84.6925C25.7699 87.1689 23.3426 93.6043 25.7768 99.0376C28.2109 104.471 34.5989 106.877 40.0167 104.4ZM33.5874 90.0495C36.0598 88.9193 38.9749 90.0171 40.0857 92.4964C41.1968 94.9766 40.089 97.9129 37.6166 99.0431C35.1444 100.173 32.2295 99.0757 31.1184 96.5955C30.0076 94.1162 31.1152 91.1795 33.5874 90.0495Z" fill="#C099BC"/>
<path d="M23.1272 85.9408L37.4359 79.4C38.9086 78.7269 39.5683 76.9779 38.9066 75.5009L32.1225 60.358C31.4608 58.881 29.7247 58.2272 28.252 58.9004L13.9432 65.4412C12.4705 66.1144 11.8106 67.8635 12.4723 69.3405L19.2564 84.4834C19.9181 85.9603 21.6545 86.614 23.1272 85.9408ZM23.3981 79.3629L19.0138 69.5768L27.9814 65.4776L32.3656 75.2637L23.3981 79.3629Z" fill="#C099BC"/>
<path d="M42.8671 130.003L57.1758 123.462C58.6485 122.789 59.3081 121.039 58.6464 119.562L51.8623 104.419C51.2006 102.943 49.4646 102.289 47.9919 102.962L33.6831 109.503C32.2104 110.176 31.5504 111.925 32.2121 113.402L38.9959 128.544C39.6579 130.022 41.3944 130.676 42.8671 130.003ZM43.1381 123.425L38.7537 113.639L47.7213 109.539L52.1056 119.326L43.1381 123.425Z" fill="#C099BC"/>
<path d="M110.657 28.6567C108.882 29.4682 107.525 30.9222 106.835 32.7505L89.0274 79.9671C89.0146 79.9998 89.0058 80.0332 88.9978 80.0695C88.8245 80.4618 88.7376 80.8681 88.7387 81.2784L88.783 93.4815C88.7869 94.6913 89.5461 95.789 90.6722 96.2131C91.4023 96.4878 92.1976 96.4596 92.9114 96.1333C93.2891 95.9607 93.6197 95.7158 93.8953 95.4056L101.986 86.2664C102.263 85.9536 102.467 85.582 102.594 85.1628L102.6 85.1511C102.626 85.1052 102.65 85.0583 102.667 85.0126L120.444 37.8754C121.134 36.047 121.075 34.0592 120.278 32.279C119.48 30.4986 118.041 29.1418 116.226 28.4586C114.41 27.7748 112.433 27.8451 110.657 28.6567ZM113.057 34.0122C113.404 33.8536 113.791 33.8392 114.145 33.9722C114.878 34.2491 115.248 35.0753 114.97 35.814L97.2592 82.7704L94.6117 85.7619L94.5964 81.7714L112.308 34.8126C112.444 34.4549 112.71 34.1709 113.057 34.0122Z" fill="#C099BC"/>
<path d="M87.0661 92.7704C87.8478 92.7704 88.3527 93.1433 88.5807 93.8892L88.2875 96.5293V97.3796C89.1018 103.555 89.6067 108.358 89.8021 111.789C90.1604 114.981 90.5349 116.577 90.9258 116.577C90.9258 117.203 90.3558 117.606 89.2158 117.785C87.5872 117.785 86.773 114.772 86.773 108.746L85.405 97.1111V96.7083C85.405 94.0831 85.9587 92.7704 87.0661 92.7704Z" fill="#280752"/>
<path d="M96.1905 92.9047C97.1025 93.203 97.5585 93.6654 97.5585 94.2919L98.047 111.341V116.845C98.047 117.86 97.5748 118.367 96.6302 118.367H95.9951C95.4088 118.009 95.1156 117.591 95.1156 117.114V111.923L94.6759 94.2024C94.6759 93.4566 95.1808 93.024 96.1905 92.9047Z" fill="#280752"/>
<path d="M104.349 92.9047C105.261 93.203 105.717 93.6654 105.717 94.2919L106.206 111.341V116.845C106.206 117.86 105.733 118.367 104.789 118.367H104.154C103.567 118.009 103.274 117.591 103.274 117.114V111.923L102.835 94.2024C102.835 93.4566 103.339 93.024 104.349 92.9047Z" fill="#280752"/>
<path d="M111.677 104.092L112.557 103.644C113.338 103.644 113.908 104.077 114.267 104.942C113.746 107.15 113.485 109.417 113.485 111.744C113.485 112.907 113.86 114.175 114.609 115.548H114.902C115.846 115.548 116.97 112.132 118.273 105.3C118.729 104.942 119.169 104.763 119.592 104.763C120.602 104.763 121.107 106.404 121.107 109.685C121.53 113.295 122.002 115.1 122.523 115.1L123.256 114.832C124.201 115.16 124.673 115.622 124.673 116.219C124.087 117.352 123.273 117.919 122.23 117.919C121.058 117.919 119.934 116.845 118.859 114.697C117.556 117.203 116.237 118.456 114.902 118.456C112.915 118.456 111.531 116.562 110.749 112.773L110.602 111.341V110.894C110.602 108.507 110.961 106.24 111.677 104.092Z" fill="#280752"/>
<path d="M135.527 99.438C136.406 99.438 137.009 100.795 137.334 103.51C137.009 104.256 136.471 104.629 135.722 104.629C135.201 104.539 134.68 103.987 134.159 102.973L133.279 102.705C131.748 102.705 130.364 103.629 129.126 105.479V105.882C129.126 106.329 131.423 107.075 136.015 108.119C137.937 109.163 138.898 110.431 138.898 111.923C138.898 114.369 136.748 116.457 132.449 118.188L130.641 118.456C127.905 118.188 126.537 116.935 126.537 114.697V114.563C126.537 113.847 127.042 113.429 128.052 113.31C128.833 113.31 129.354 114.056 129.615 115.548L130.006 115.816H130.836C132.693 115.816 134.419 114.653 136.015 112.326V111.744C136.015 110.849 133.882 110.014 129.615 109.238C127.368 108.403 126.244 107.239 126.244 105.748C126.244 103.808 128.019 101.989 131.569 100.288C133.133 100.109 134.452 99.8258 135.527 99.438Z" fill="#280752"/>
<path d="M146.453 90.3988C147.365 90.5777 147.821 90.9954 147.821 91.6517L147.528 93.6207V94.2024C147.528 95.515 147.691 96.9022 148.016 98.364H148.114C151.892 97.3199 154.237 96.7978 155.149 96.7978C156.094 97.0365 156.566 97.4691 156.566 98.0955C156.566 99.1098 155.443 99.617 153.195 99.617L148.114 101.273C148.114 105.3 148.586 110.774 149.531 117.696C149.336 118.501 148.863 118.904 148.114 118.904H148.016C146.876 118.904 146.306 117.561 146.306 114.876C145.883 112.878 145.525 108.537 145.232 101.854H144.352C141.29 101.675 139.76 101.019 139.76 99.8855C139.76 99.5573 140.102 99.1546 140.786 98.6773H141.274L143.522 99.2143H145.085L144.645 93.6207C144.645 91.4727 145.248 90.3988 146.453 90.3988Z" fill="#280752"/>
<path d="M164.504 99.9302C166.556 99.9302 167.777 101.243 168.168 103.868V104.271C168.168 107.165 166.54 109.82 163.283 112.236C165.172 113.937 168.478 114.787 173.2 114.787C173.917 114.996 174.275 115.458 174.275 116.174C174.275 116.98 173.705 117.382 172.565 117.382C169.373 117.382 166.019 116.636 162.501 115.145V116.443C162.501 119.515 161.784 121.052 160.351 121.052C159.341 121.052 158.837 119.277 158.837 115.727V112.236L158.69 110.983L159.032 109.551L158.69 105.255V105.076C158.69 104.271 159.146 103.719 160.058 103.421C161.328 101.094 162.81 99.9302 164.504 99.9302ZM162.061 109.73C163.006 109.73 164.064 108.179 165.237 105.076V103.152L164.651 102.57H164.211C162.778 103.465 162.061 105.852 162.061 109.73Z" fill="#280752"/>
<path d="M185.035 100.288C186.468 100.288 187.185 100.81 187.185 101.854L186.745 102.705L186.452 110.894C186.452 114.593 187.266 116.89 188.895 117.785L188.993 118.456C188.895 119.321 188.455 119.754 187.674 119.754H187.38C184.938 118.232 183.716 115.906 183.716 112.773H183.374C182.071 116.114 180.492 117.785 178.635 117.785C176.909 117.338 176.046 116.159 176.046 114.25C176.046 110.043 177.886 105.852 181.566 101.675C182.804 100.751 183.96 100.288 185.035 100.288ZM179.124 112.46L178.928 113.713V114.563H179.417C181.86 108.984 183.081 105.584 183.081 104.36H182.886C180.996 106.299 179.742 108.999 179.124 112.46Z" fill="#280752"/>
<path d="M195.93 90.3988C196.842 90.5777 197.298 90.9954 197.298 91.6517L197.005 93.6207V94.2024C197.005 95.515 197.168 96.9022 197.493 98.364H197.591C201.369 97.3199 203.714 96.7978 204.626 96.7978C205.571 97.0365 206.043 97.4691 206.043 98.0955C206.043 99.1098 204.92 99.617 202.672 99.617L197.591 101.273C197.591 105.3 198.063 110.774 199.008 117.696C198.812 118.501 198.34 118.904 197.591 118.904H197.493C196.353 118.904 195.783 117.561 195.783 114.876C195.36 112.878 195.002 108.537 194.708 101.854H193.829C190.767 101.675 189.237 101.019 189.237 99.8855C189.237 99.5573 189.579 99.1546 190.263 98.6773H190.751L192.999 99.2143H194.562L194.122 93.6207C194.122 91.4727 194.725 90.3988 195.93 90.3988Z" fill="#280752"/>
<path d="M211.929 101.496C213.232 101.526 215.43 103.615 218.525 107.761L218.622 108.522C218.622 109.357 216.391 109.999 211.929 110.446L211.782 110.58V110.759C212.466 113.444 213.183 114.787 213.932 114.787H214.518C215.561 114.787 217.14 113.758 219.257 111.699H219.551C220.202 111.699 220.707 112.132 221.065 112.997C221.065 113.713 219.697 114.951 216.961 116.711C216.245 117.099 215.381 117.382 214.372 117.561C211.734 117.561 209.893 115.294 208.851 110.759C207.353 110.551 206.604 109.984 206.604 109.059C206.604 108.403 207.157 107.97 208.265 107.761V107.94L208.753 107.761V106.643C208.753 103.212 209.812 101.496 211.929 101.496ZM212.222 104.718H211.782L211.587 106.374V107.761H211.782C213.606 107.702 214.518 107.523 214.518 107.224C213.671 106.061 212.906 105.226 212.222 104.718Z" fill="#280752"/>
<path d="M250.496 100.288C251.929 100.288 252.645 100.81 252.645 101.854L252.206 102.705L251.912 110.894C251.912 114.593 252.727 116.89 254.355 117.785L254.453 118.456C254.355 119.321 253.916 119.754 253.134 119.754H252.841C250.398 118.232 249.176 115.906 249.176 112.773H248.834C247.532 116.114 245.952 117.785 244.095 117.785C242.369 117.338 241.506 116.159 241.506 114.25C241.506 110.043 243.346 105.852 247.027 101.675C248.264 100.751 249.421 100.288 250.496 100.288ZM244.584 112.46L244.389 113.713V114.563H244.877C247.32 108.984 248.541 105.584 248.541 104.36H248.346C246.457 106.299 245.203 108.999 244.584 112.46Z" fill="#280752"/>
<path d="M283.08 88.1613H283.862C289.171 88.1613 292.575 89.9214 294.073 93.4417L294.22 94.8736V95.3211C294.22 98.7817 291.923 101.989 287.331 104.942C286.223 105.24 285.67 105.569 285.67 105.927C286.973 110.491 287.624 114.22 287.624 117.114V117.696C287.624 118.889 287.087 119.485 286.012 119.485C285.197 119.396 284.79 119.023 284.79 118.367V117.248C284.79 113.817 284.106 110.088 282.738 106.061C280.1 105.852 278.634 105.196 278.341 104.092V103.823C278.341 103.286 278.797 102.869 279.709 102.57L281.859 103.242V103.152C280.752 98.7369 280.198 95.7537 280.198 94.2024C280.198 93.3373 280.752 92.9047 281.859 92.9047C282.869 92.9047 283.373 94.4858 283.373 97.6481L284.79 102.973C287.135 102.257 288.959 100.855 290.262 98.7668C290.946 97.5735 291.288 96.5144 291.288 95.5896V95.0079C291.288 92.5616 289.008 91.1744 284.448 90.8462H282.445C277.983 91.2937 275.752 92.2633 275.752 93.7549V94.0234C275.752 94.4709 276.012 95.172 276.534 96.1266C276.534 96.7829 275.964 97.2006 274.824 97.3796C273.521 96.8127 272.869 95.6493 272.869 93.8892C272.869 90.6076 276.273 88.6983 283.08 88.1613Z" fill="#280752"/>
<path d="M304.093 100.691C306.503 100.691 308.327 102.332 309.564 105.613L309.76 106.553C309.76 109.745 308.131 113.012 304.874 116.353C303.571 117.457 302.252 118.009 300.917 118.009C298.963 118.009 297.578 116.98 296.764 114.921C296.471 113.966 296.324 113.131 296.324 112.415V111.878C296.324 107.165 298.197 103.585 301.943 101.138C302.594 100.84 303.311 100.691 304.093 100.691ZM299.207 112.326C299.207 114.354 299.777 115.369 300.917 115.369C303.295 115.369 305.265 112.579 306.829 107.001V106.15C306.275 104.301 305.249 103.376 303.751 103.376C303.164 103.376 302.871 103.749 302.871 104.495C302.871 105.002 302.22 105.405 300.917 105.703C299.777 107.463 299.207 109.671 299.207 112.326Z" fill="#280752"/>
<path d="M318.374 99.9302C320.426 99.9302 321.647 101.243 322.038 103.868V104.271C322.038 107.165 320.41 109.82 317.153 112.236C319.042 113.937 322.348 114.787 327.07 114.787C327.787 114.996 328.145 115.458 328.145 116.174C328.145 116.98 327.575 117.382 326.435 117.382C323.243 117.382 319.889 116.636 316.371 115.145V116.443C316.371 119.515 315.654 121.052 314.221 121.052C313.211 121.052 312.707 119.277 312.707 115.727V112.236L312.56 110.983L312.902 109.551L312.56 105.255V105.076C312.56 104.271 313.016 103.719 313.928 103.421C315.198 101.094 316.68 99.9302 318.374 99.9302ZM315.931 109.73C316.876 109.73 317.934 108.179 319.107 105.076V103.152L318.521 102.57H318.081C316.648 103.465 315.931 105.852 315.931 109.73Z" fill="#280752"/>
<path d="M335.534 90.3988C336.446 90.5777 336.902 90.9954 336.902 91.6517L336.609 93.6207V94.2024C336.609 95.515 336.772 96.9022 337.098 98.364H337.195C340.973 97.3199 343.319 96.7978 344.231 96.7978C345.175 97.0365 345.647 97.4691 345.647 98.0955C345.647 99.1098 344.524 99.617 342.276 99.617L337.195 101.273C337.195 105.3 337.668 110.774 338.612 117.696C338.417 118.501 337.944 118.904 337.195 118.904H337.098C335.958 118.904 335.388 117.561 335.388 114.876C334.964 112.878 334.606 108.537 334.313 101.854H333.433C330.372 101.675 328.841 101.019 328.841 99.8855C328.841 99.5573 329.183 99.1546 329.867 98.6773H330.355L332.603 99.2143H334.166L333.726 93.6207C333.726 91.4727 334.329 90.3988 335.534 90.3988Z" fill="#280752"/>
<path d="M354.758 97.4243C356.289 97.4243 357.347 98.9159 357.933 101.899V102.078C357.933 102.764 357.429 103.167 356.419 103.286C355.605 103.286 355.051 102.362 354.758 100.512L354.562 100.378H353.976C353.259 101.332 352.901 102.585 352.901 104.137L353.048 106.374C354.351 106.374 355.767 106.061 357.298 105.434C357.917 105.434 358.487 105.837 359.008 106.643C359.008 107.866 357.184 108.671 353.536 109.059L354.758 116.353C354.758 116.98 354.188 117.382 353.048 117.561C352.038 117.561 351.533 116.129 351.533 113.265L350.605 109.462L347.429 109.909C346.745 109.909 346.338 109.447 346.208 108.522C346.208 107.627 347.527 107.06 350.165 106.822L349.97 104.047C350.491 99.6319 352.087 97.4243 354.758 97.4243Z" fill="#280752"/>
<path d="M368.122 100.691C370.532 100.691 372.356 102.332 373.593 105.613L373.789 106.553C373.789 109.745 372.16 113.012 368.903 116.353C367.6 117.457 366.281 118.009 364.946 118.009C362.992 118.009 361.607 116.98 360.793 114.921C360.5 113.966 360.353 113.131 360.353 112.415V111.878C360.353 107.165 362.226 103.585 365.972 101.138C366.623 100.84 367.34 100.691 368.122 100.691ZM363.236 112.326C363.236 114.354 363.806 115.369 364.946 115.369C367.324 115.369 369.294 112.579 370.858 107.001V106.15C370.304 104.301 369.278 103.376 367.78 103.376C367.193 103.376 366.9 103.749 366.9 104.495C366.9 105.002 366.249 105.405 364.946 105.703C363.806 107.463 363.236 109.671 363.236 112.326Z" fill="#280752"/>
<path d="M378.739 92.9047C379.651 93.203 380.107 93.6654 380.107 94.2919L380.595 111.341V116.845C380.595 117.86 380.123 118.367 379.178 118.367H378.543C377.957 118.009 377.664 117.591 377.664 117.114V111.923L377.224 94.2024C377.224 93.4566 377.729 93.024 378.739 92.9047Z" fill="#280752"/>
<path d="M384.699 94.2471C385.937 94.4858 386.555 94.993 386.555 95.7686C386.23 96.6039 385.709 97.0216 384.992 97.0216C383.787 96.8127 383.184 96.2608 383.184 95.3659C383.51 94.6201 384.015 94.2471 384.699 94.2471ZM386.555 100.512C387.077 100.512 387.516 100.945 387.875 101.81L387.435 104.987V107.09C387.435 109.536 387.891 112.743 388.803 116.711C388.477 117.278 387.923 117.561 387.142 117.561C385.806 117.561 384.927 113.981 384.503 106.822V105.255C384.503 102.093 385.187 100.512 386.555 100.512Z" fill="#280752"/>
<path d="M399.134 100.691C401.544 100.691 403.368 102.332 404.606 105.613L404.801 106.553C404.801 109.745 403.173 113.012 399.916 116.353C398.613 117.457 397.294 118.009 395.958 118.009C394.004 118.009 392.62 116.98 391.806 114.921C391.512 113.966 391.366 113.131 391.366 112.415V111.878C391.366 107.165 393.239 103.585 396.984 101.138C397.636 100.84 398.352 100.691 399.134 100.691ZM394.248 112.326C394.248 114.354 394.818 115.369 395.958 115.369C398.336 115.369 400.307 112.579 401.87 107.001V106.15C401.316 104.301 400.29 103.376 398.792 103.376C398.206 103.376 397.913 103.749 397.913 104.495C397.913 105.002 397.261 105.405 395.958 105.703C394.818 107.463 394.248 109.671 394.248 112.326Z" fill="#280752"/>
<path d="M417.387 52.1311C417.355 52.0938 417.321 52.0572 417.287 52.0214C416.886 51.6033 416.487 51.4286 416.121 51.3959C415.633 51.3523 415.085 51.5503 414.545 52.2435C414.006 52.9369 413.532 54.1302 413.39 55.8704C412.389 68.1917 411.391 80.0312 410.879 89.0276C410.755 91.2025 410.66 93.2073 410.599 95.0147C414.266 93.6715 417.985 94.0237 421.213 95.8108C421.169 94.0332 421.096 92.0672 420.996 89.9325C420.57 80.8523 419.688 68.8441 418.807 56.3547C418.682 54.5908 418.22 53.3137 417.688 52.5245C417.596 52.3873 417.496 52.2559 417.387 52.1311ZM421.253 98.2396C418.095 96.0308 414.408 95.598 410.539 97.4175C410.523 98.381 410.519 99.2753 410.532 100.073C410.552 101.328 410.612 102.367 410.705 103.14C412.291 101.979 414.299 101.52 416.231 101.69C417.996 101.845 419.763 102.553 421.064 103.812C421.148 103.085 421.206 102.147 421.235 101.03C421.257 100.198 421.261 99.2578 421.253 98.2396ZM419.837 105.478C418.965 104.535 417.664 103.964 416.223 103.837C414.302 103.667 412.267 104.342 411.058 105.858C408.378 109.219 407.523 113.098 408.362 116.644C409.103 119.778 411.17 122.699 414.7 124.856C413.031 122.325 413.42 118.23 414.944 116.539C414.753 118.499 414.874 120.623 415.471 122.506C416.54 119.863 418.508 118.167 419.928 116.543C420.947 115.379 421.694 114.265 421.925 112.795C422.157 111.325 421.89 109.398 420.555 106.543C420.373 106.155 420.13 105.795 419.837 105.478Z" fill="#280752"/>
</svg>
